<svg xmlns="http://www.w3.org/2000/svg" viewBox="0 0 32 32">
	<path d="M25.2317 27.4303L29.9835 3.94173C30.1058 3.33601 29.5267 2.83068 28.9654 3.05375L2.48711 13.5509C1.8336 13.8096 1.8392 14.7604 2.49458 15.0127L8.94636 17.4872L11.4436 25.7405C11.6034 26.2687 12.2324 26.4642 12.6497 26.1134L16.2461 23.1007C16.6231 22.7848 17.1601 22.7692 17.5539 23.0631L24.0405 27.9027C24.487 28.2362 25.1198 27.9849 25.2317 27.4303ZM11.0374 16.1701L23.6466 8.18944C23.8731 8.04648 24.1063 8.36136 23.9115 8.54679L13.5054 18.4873C13.1395 18.8371 12.9037 19.3056 12.8368 19.8139L12.4825 22.5134C12.4353 22.8738 11.9428 22.9094 11.8459 22.5607L10.4826 17.6379C10.3267 17.0764 10.5541 16.4766 11.0374 16.1701Z"/>
</svg>
