<svg xmlns="http://www.w3.org/2000/svg" viewBox="0 0 13.2 13.2">
	<path d="M 12.85 11.25 C 13.07 11.46 13.19 11.74 13.2 12.05 C 13.2 12.37 13.07 12.67 12.85 12.88 C 12.63 13.09 12.34 13.2 12.05 13.2 C 11.75 13.2 11.46 13.09 11.24 12.88 C 11.24 12.87 11.24 12.87 11.24 12.87 L 6.6 8.23 L 1.97 12.87 C 1.97 12.87 1.96 12.87 1.96 12.88 C 1.75 13.09 1.46 13.2 1.16 13.2 C 0.86 13.2 0.57 13.09 0.36 12.88 C 0.14 12.67 0.01 12.37 0 12.06 C 0.01 11.76 0.13 11.46 0.36 11.25 L 4.99 6.61 L 0.36 1.97 C 0.13 1.76 0.01 1.46 0 1.16 C 0.01 0.85 0.13 0.56 0.35 0.35 C 0.56 0.13 0.85 0.01 1.16 0 C 1.47 0.01 1.76 0.13 1.97 0.35 L 6.6 4.99 L 11.23 0.35 C 11.45 0.13 11.74 0.01 12.05 0 C 12.35 0.01 12.64 0.13 12.86 0.35 C 13.07 0.56 13.2 0.85 13.2 1.16 C 13.2 1.46 13.07 1.76 12.85 1.97 L 8.22 6.61 L 12.85 11.25 Z"/>
</svg>
