<svg xmlns="http://www.w3.org/2000/svg" viewBox="0 0 32 32">
	<path d="M2 4.17132C2 3.25208 2.31532 2.49372 2.94595 1.89624C3.57657 1.29874 4.39641 1 5.40541 1C6.39641 1 7.19819 1.29413 7.81081 1.88246C8.44143 2.48914 8.75676 3.27966 8.75676 4.25405C8.75676 5.13651 8.45046 5.87187 7.83784 6.46019C7.20722 7.06688 6.37838 7.37022 5.35135 7.37022H5.32432C4.33332 7.37022 3.53154 7.06688 2.91892 6.46019C2.3063 5.8535 2 5.09054 2 4.17132ZM2.35135 28.301V9.87971H8.35135V28.301H2.35135ZM11.6757 28.301H17.6757V18.0148C17.6757 17.3714 17.7478 16.875 17.8919 16.5257C18.1441 15.9006 18.527 15.3721 19.0405 14.94C19.5541 14.508 20.1982 14.292 20.973 14.292C22.991 14.292 24 15.68 24 18.4561V28.301H30V17.7391C30 15.0182 29.3694 12.9545 28.1081 11.5481C26.8468 10.1417 25.1802 9.43848 23.1081 9.43848C20.7838 9.43848 18.973 10.4588 17.6757 12.4995V12.5547H17.6486L17.6757 12.4995V9.87971H11.6757C11.7117 10.468 11.7297 12.2972 11.7297 15.3675C11.7297 18.4377 11.7117 22.7488 11.6757 28.301Z"/>
</svg>
